HIERARCHY
ROOT pelvis
{
  OFFSET 0 100 0
  CHANNELS 6 Xposition Yposition Zposition Zrotation Xrotation Yrotation
  JOINT pelvis_right_femur
  {
    OFFSET -10.78128 -3.44521 -0.5502486
    CHANNELS 3 Zrotation Xrotation Yrotation
    JOINT right_femur_tibia
    {
      OFFSET -0.8047443 -44.0398 -0.1307829
      CHANNELS 3 Zrotation Xrotation Yrotation
      JOINT right_tibia_foot
      {
        OFFSET 3.006224 -47.83518 -5
        CHANNELS 3 Zrotation Xrotation Yrotation
        End Site
        {
          OFFSET 0 -5 15
        }
      }
    }
  }
  JOINT pelvis_left_femur
  {
    OFFSET 10.78128 -3.44521 -0.5502486
    CHANNELS 3 Zrotation Xrotation Yrotation
    JOINT left_femur_tibia
    {
      OFFSET 0.8047443 -44.0398 -0.1307829
      CHANNELS 3 Zrotation Xrotation Yrotation
      JOINT left_tibia_foot
      {
        OFFSET -4.370144 -48.10324 -4.275266
        CHANNELS 3 Zrotation Xrotation Yrotation
        End Site
        {
          OFFSET 0 -5 15
        }
      }
    }
  }
  JOINT pelvis_spine1
  {
    OFFSET 0 6.468898 -3.129235
    CHANNELS 3 Zrotation Xrotation Yrotation
    JOINT spine1
    {
      OFFSET 0 23.15396 4.99043
      CHANNELS 3 Zrotation Xrotation Yrotation
      JOINT spine2
      {
        OFFSET 0 20.79997 -5.064912
        CHANNELS 3 Zrotation Xrotation Yrotation
        JOINT neck
        {
          OFFSET 0 14.38658 9.616178
          CHANNELS 3 Zrotation Xrotation Yrotation
          End Site
          {
            OFFSET 0 20 0
          }
        }
      }
      JOINT right_manubrium
      {
        OFFSET -5.722621 16.35077 3.967754
        CHANNELS 3 Zrotation Xrotation Yrotation
        JOINT right_clavicle
        {
          OFFSET -13.16364 1.694482 -4.693211
          CHANNELS 3 Zrotation Xrotation Yrotation
          JOINT right_humerus
          {
            OFFSET -28.5034 -0.3100689 -2.792744
            CHANNELS 3 Zrotation Xrotation Yrotation
            JOINT right_radius
            {
              OFFSET -25.15693 0.02248979 -1.271978
              CHANNELS 3 Zrotation Xrotation Yrotation
              End Site
              {
                OFFSET -15 0 0
              }
            }
          }
        }
      }
      JOINT left_manubrium
      {
        OFFSET 5.722621 16.35077 3.967754
        CHANNELS 3 Zrotation Xrotation Yrotation
        JOINT left_clavicle
        {
          OFFSET 13.16364 1.694482 -4.693211
          CHANNELS 3 Zrotation Xrotation Yrotation
          JOINT left_humerus
          {
            OFFSET 29.39168 -1.063119 -2.237045
            CHANNELS 3 Zrotation Xrotation Yrotation
            JOINT left_radius
            {
              OFFSET 24.59957 -0.9528479 0.9047498
              CHANNELS 3 Zrotation Xrotation Yrotation
              End Site
              {
                OFFSET 15 -0 -0
              }
            }
          }
        }
      }
    }
  }
}
MOTION
Frames: 7
Frame Time: 0.0416666666667
0 103.5113 0 1.468975 -1.519341 0.1561062 3.791295 -13.744 10.92416 -0 36.5355 -0 -4.345396 -19.14913 -4.707258 -6.666854 9.128729 -20.77907 -0 4.575329 -0 18.13546 -9.009439 26.3561 -2.387878 -3.170549 5.288307 2.641559 9.699446 -8.105783 1.978387 20.17803 6.407615 3.112455 -27.15709 10.08427 4.600922 -20.48465 10.98552 86.85885 35.44939 -19.31693 -0 0 16.29565 -7.431788 8.359885 3.389493 7.166431 -20.7492 -0.09090403 -92.52501 22.07382 21.13851 0 0 -15.93916 14.56176 15.49561 -2.487922
0.5168745 103.5005 1.658397 1.0196 -0.3295324 0.2936547 4.878527 -17.29784 11.88363 -0 36.18901 -0 -3.930177 -19.03216 -5.050475 -6.484849 9.540643 -20.66181 -0 5.481956 -0 18.11217 -10.15803 26.11681 -2.379253 -3.32805 5.43228 2.503019 9.682918 -8.110395 2.120994 20.00822 6.495203 3.181949 -27.36659 10.34127 4.357157 -20.61995 10.85563 87.00596 35.89956 -19.34344 -0 0 16.22838 -7.326485 8.447885 3.266755 7.51519 -20.91391 0.1777892 -91.96298 22.06655 20.3616 0 0 -17.31409 15.35022 15.29064 -3.037283
0.9452834 103.329 3.450759 0.8427209 -0.6986376 0.4272601 4.836737 -18.52837 9.874 -0 34.36274 -0 -4.7599 -16.79474 -4.18931 -6.523387 10.56735 -20.80769 -0 6.246833 -0 15.47462 -12.8374 26.08458 -2.259305 -3.054014 5.058342 2.716998 9.654012 -8.315267 1.93001 19.90436 6.708898 3.40584 -27.17542 10.05334 4.724049 -19.77963 10.96437 87.18528 35.63977 -20.16861 -0 0 15.06691 -7.660606 8.867702 3.567458 7.595433 -21.24963 -0.1150176 -91.56481 22.03118 19.3874 0 0 -18.15723 14.46242 14.97294 -2.223281
1.322689 103.1334 5.417629 0.4974724 -0.4333779 0.5478257 5.323946 -20.67168 9.020435 -0 32.62672 -0 -5.298508 -15.24374 -3.776911 -6.321586 11.08558 -20.46269 -0 7.248243 -0 14.28694 -14.35727 25.5533 -2.182603 -2.927899 4.867765 2.80637 9.63419 -8.444479 1.851557 19.79257 6.861664 3.557177 -27.09513 9.940322 4.880311 -19.30164 10.99403 87.34265 35.59895 -20.68413 -0 0 14.32984 -7.859234 9.164951 3.74201 7.733884 -21.50381 -0.2247607 -91.15347 22.01756 18.56859 0 0 -19.0787 14.09531 14.70837 -1.814933
1.648804 102.918 7.555598 0.1249623 0.1656575 0.6874638 5.865635 -23.16139 8.625667 -0 31.06283 -0 -5.554316 -13.95999 -3.546105 -6.143791 11.62372 -20.19991 -0 8.009574 -0 12.83986 -16.05552 24.91308 -2.116206 -2.806514 4.681276 2.89159 9.616708 -8.551865 1.772993 19.71369 6.991461 3.685375 -26.98311 9.819169 5.084372 -18.85 11.02895 87.43723 35.53304 -21.13631 -0 0 13.68701 -8.031483 9.451371 3.933666 7.815293 -21.70148 -0.3479398 -90.88638 22.11648 17.9619 0 0 -19.75854 13.59063 14.51989 -1.22987
1.937335 102.6875 9.933731 -0.2841175 0.7692458 0.8591595 6.490669 -25.57235 8.267003 -0 29.22333 -0 -5.987917 -12.57061 -3.304066 -5.869285 12.02699 -19.67471 -0 9.119706 -0 11.75233 -17.22521 23.99332 -2.054646 -2.697699 4.517801 2.96168 9.60512 -8.64996 1.705417 19.63916 7.105836 3.797002 -26.87344 9.709657 5.257369 -18.45061 11.0581 87.53472 35.4815 -21.54257 -0 0 13.10617 -8.206118 9.721788 4.11926 7.888052 -21.88302 -0.4555618 -90.62407 22.20704 17.3995 0 0 -20.40516 13.13095 14.33592 -0.6838643
2.193087 102.4615 12.61094 -0.7193267 1.420194 1.075302 7.146585 -27.89869 7.978918 -0 27.29071 -0 -6.52434 -11.12696 -3.072425 -5.542867 12.41362 -19.04132 -0 10.52643 -0 10.58491 -18.13643 22.7998 -1.996357 -2.589979 4.363209 3.025749 9.598655 -8.739576 1.639975 19.577 7.205925 3.894671 -26.75211 9.596636 5.427517 -18.07703 11.08882 87.62192 35.42442 -21.91469 -0 0 12.5699 -8.387046 9.983691 4.311984 7.936247 -22.04282 -0.5648469 -90.39722 22.31514 16.91013 0 0 -20.96511 12.64519 14.16764 -0.1060989
